<?xml version="1.0" encoding="UTF-8"?><svg id="a" xmlns="http://www.w3.org/2000/svg" width="1968.65" height="640.74" xmlns:xlink="http://www.w3.org/1999/xlink" viewBox="0 0 1968.65 640.74"><defs><style>.i{fill:url(#h);}.j{fill:url(#f);}.k{fill:url(#g);}.l{fill:url(#e);}.m{fill:url(#d);}.n{fill:url(#b);}.o{fill:url(#c);}</style><linearGradient id="b" x1="1914.08" y1="32.92" x2="1973.23" y2="17.08" gradientUnits="userSpaceOnUse"><stop offset="0" stop-color="#0c0c0c"/><stop offset="1" stop-color="#383838"/></linearGradient><linearGradient id="c" x1="1922.55" y1="14.4" x2="1958.58" y2="14.4" gradientUnits="userSpaceOnUse"><stop offset="0" stop-color="#ef4536"/><stop offset="1" stop-color="#fbae41"/></linearGradient><linearGradient id="d" x1="1930.68" y1="22.37" x2="1961.05" y2="22.37" xlink:href="#c"/><linearGradient id="e" x1="1937.74" y1="29.39" x2="1962.64" y2="29.39" xlink:href="#c"/><linearGradient id="f" x1="1948.87" y1="34.71" x2="1954.17" y2="34.71" xlink:href="#c"/><linearGradient id="g" x1="1953.43" y1="35.34" x2="1959.11" y2="35.34" xlink:href="#c"/><linearGradient id="h" x1="1959.82" y1="36.02" x2="1964.75" y2="36.02" xlink:href="#c"/></defs><rect class="n" x="1918.65" width="50" height="50"/><g><path class="o" d="m1958.58,20.94s-.15-.4-.16-.43c-.15-.37-.32-.73-.51-1.08-.53-.98-1.2-1.92-2.09-2.6-1.02-.77-2.41-.9-3.63-1.22l-3.59-.94-5-1.31-5.7-1.49-5.67-1.48-4.93-1.29-3.46-.9-1.28-.33s8.83,9.18,14.48,10.24,21.54,2.83,21.55,2.83Z"/><path class="m" d="m1961.05,25.71s-1.53-3.74-3.71-3.89-26.67-3.36-26.67-3.36c0,0,7.06,7.59,12.89,7.77s17.48-.53,17.48-.53Z"/><path class="l" d="m1962.64,29.06l-1.06-1.77s-.18-.53-1.94-.35-21.9.71-21.9.88,7.06,4.95,12.19,3.89,12.72-2.65,12.72-2.65Z"/><path class="j" d="m1954.17,31.89s-5.12,0-5.3,5.65c0,0,4.24-.53,5.3-5.65Z"/><path class="k" d="m1959.11,30.83s-3.71-.18-4.24,1.94-1.44,7.07-1.44,7.07c0,0,4.97.7,5.68-9.02Z"/><path class="i" d="m1962.97,29.99c-.07-.03-.14-.06-.23-.06-.34-.03-.73,0-1.07.03-.45.03-1.38,0-1.63.49-.06.11-.06.24-.06.37-.02,2.34-.06,4.68-.1,7.01-.02,1.01-.03,2.02-.05,3.03,0,.31-.01.62-.02.93,0,.05.03.3,0,.34,1.26-1.09,2.38-2.42,3.28-3.81,1.16-1.78,2.24-4.12,1.3-6.22-.18-.41-.42-.8-.67-1.17-.2-.3-.43-.78-.75-.95Z"/></g></svg>