<?xml version="1.0" encoding="UTF-8"?><svg xmlns="http://www.w3.org/2000/svg" xmlns:xlink="http://www.w3.org/1999/xlink" width="38.000000pt" height="38.000000pt" viewBox="0 0 172.000000 172.000000" preserveAspectRatio="xMidYMid meet"><defs><style>.y{fill:url(#p);}.z{fill:url(#m);}.aa{fill:url(#r);}.ab{fill:url(#h);}.ac{fill:url(#t);}.ad{fill:url(#i);}.ae{fill:url(#l);}.af{fill:url(#s);}.ag{fill:url(#q);}.ah{fill:url(#f);}.ai{fill:url(#g);}.aj{fill:url(#n);}.ak{fill:#f5f6f6;}.al{fill:url(#e);}.am{fill:url(#v);}.an{fill:url(#o);}.ao{fill:url(#d);}.ap{fill:url(#x);}.aq{fill:url(#b);}.ar{fill:url(#u);}.as{fill:url(#w);}.at{fill:url(#k);}</style><linearGradient id="b" x1="-37.13" y1="501.44" x2="1317.13" y2="138.56" gradientUnits="userSpaceOnUse"><stop offset="0" stop-color="#0c0c0c"/><stop offset="1" stop-color="#383838"/></linearGradient><linearGradient id="d" x1="75.46" y1="213.29" x2="435.75" y2="213.29" gradientUnits="userSpaceOnUse"><stop offset="0" stop-color="#ef4536"/><stop offset="1" stop-color="#fbae41"/></linearGradient><linearGradient id="e" x1="156.71" y1="292.91" x2="460.48" y2="292.91" xlink:href="#d"/><linearGradient id="f" x1="227.35" y1="363.12" x2="476.37" y2="363.12" xlink:href="#d"/><linearGradient id="g" x1="338.61" y1="416.4" x2="391.6" y2="416.4" xlink:href="#d"/><linearGradient id="h" x1="384.26" y1="422.65" x2="441.05" y2="422.65" xlink:href="#d"/><linearGradient id="i" x1="448.11" y1="429.47" x2="497.46" y2="429.47" xlink:href="#d"/><linearGradient id="k" x1="507.41" y1="422.65" x2="1057.52" y2="422.65" xlink:href="#d"/><linearGradient id="l" x1="507.41" y1="422.65" x2="1057.52" y2="422.65" xlink:href="#d"/><linearGradient id="m" x1="507.41" y1="422.65" x2="1057.52" y2="422.65" xlink:href="#d"/><linearGradient id="n" x1="507.41" y1="422.65" x2="1057.52" y2="422.65" xlink:href="#d"/><linearGradient id="o" x1="507.41" y1="422.65" x2="1057.52" y2="422.65" xlink:href="#d"/><linearGradient id="p" x1="507.41" y1="422.65" x2="1057.52" y2="422.65" xlink:href="#d"/><linearGradient id="q" x1="507.41" y1="422.65" x2="1057.52" y2="422.65" xlink:href="#d"/><linearGradient id="r" x1="507.41" y1="422.65" x2="1057.52" y2="422.65" xlink:href="#d"/><linearGradient id="s" x1="507.41" y1="422.65" x2="1057.52" y2="422.65" xlink:href="#d"/><linearGradient id="t" x1="507.41" y1="422.65" x2="1057.52" y2="422.65" xlink:href="#d"/><linearGradient id="u" x1="507.41" y1="422.65" x2="1057.52" y2="422.65" xlink:href="#d"/><linearGradient id="v" x1="507.41" y1="422.65" x2="1057.52" y2="422.65" xlink:href="#d"/><linearGradient id="w" x1="507.41" y1="422.65" x2="1057.52" y2="422.65" xlink:href="#d"/><linearGradient id="x" x1="507.41" y1="422.65" x2="1057.52" y2="422.65" xlink:href="#d"/></defs><g id="a"><rect class="aq" width="1280" height="640"/></g><g id="c"><g><path class="ao" d="m435.75,278.64c-.3-.03-1.51-3.98-1.65-4.31-1.52-3.69-3.23-7.3-5.12-10.81-5.26-9.79-12-19.22-20.94-25.97-10.2-7.69-24.08-8.97-36.31-12.17s-23.92-6.25-35.88-9.38c-16.68-4.36-33.35-8.72-50.03-13.08l-56.98-14.89c-18.91-4.94-37.82-9.88-56.73-14.83l-49.27-12.88c-11.54-3.02-23.08-6.03-34.62-9.05-4.26-1.11-8.51-2.22-12.77-3.34,0,0,88.31,91.84,144.82,102.43,56.51,10.6,215.45,28.26,215.47,28.26Z"/><path class="al" d="m460.48,326.33s-15.29-37.42-37.09-38.85c-21.15-1.4-266.68-33.56-266.68-33.56,0,0,70.64,75.94,128.93,77.71,58.28,1.77,174.84-5.3,174.84-5.3Z"/><path class="ah" d="m476.37,359.88l-10.6-17.66s-1.77-5.3-19.43-3.53-219,7.06-219,8.83,70.64,49.45,121.86,38.85,127.16-26.49,127.16-26.49Z"/><path class="ai" d="m391.6,388.14s-51.22,0-52.98,56.52c0,0,42.39-5.3,52.98-56.52Z"/><path class="ab" d="m441.05,377.54s-37.09-1.77-42.39,19.43-14.4,70.72-14.4,70.72c0,0,49.72,6.99,56.78-90.15Z"/><path class="ad" d="m479.68,369.13c-.67-.33-1.41-.56-2.26-.64-3.42-.34-7.28.07-10.71.3-4.55.3-13.8.08-16.26,4.95-.57,1.13-.59,2.45-.6,3.72-.17,23.38-.64,46.76-1.02,70.13-.16,10.1-.33,20.21-.49,30.31-.05,3.08-.1,6.17-.15,9.25,0,.49.31,3.05-.06,3.42,12.59-10.91,23.76-24.18,32.81-38.11,11.57-17.81,22.35-41.24,12.97-62.16-1.84-4.1-4.17-7.96-6.67-11.7-1.98-2.95-4.26-7.84-7.54-9.47Z"/></g></g><g id="j"><path class="ak" d="m801.48,317.69h-48.97c-5.27,12.49-12.1,28.88-16.39,40.19h-21.27l54.82-138.33h14.44l54.82,138.33h-21.07l-16.39-40.19Zm-41.56-18.53h33.95l-16.78-48.19-17.17,48.19Z"/><path class="ak" d="m881.67,288.62h23.02c16.58,0,24.78-11.9,24.78-23.8s-8.19-23.61-24.78-23.61h-30.24v116.67h-19.51v-136.57h49.75c29.65,0,44.48,21.85,44.48,43.51,0,19.31-11.9,37.65-35.31,41.75l43.12,51.31h-25.56l-49.75-59.9v-9.36Z"/><path class="ak" d="m971.61,316.91v-95.4h22.79v95.6c0,15.02,18.54,22.44,35.07,22.44s34.85-7.61,34.85-22.63v-95.4h22.79v95.6c0,27.7-30.83,42.14-57.64,42.14s-57.86-14.44-57.86-42.34Z"/><path class="ak" d="m1181.32,256.62c-2.73-12.29-16-17.56-27.9-17.36-9.17.2-19.31,3.32-24.78,10.34-2.73,3.51-3.71,8-3.32,12.68.98,14.05,16.39,15.8,31.02,17.17,18.73,2.34,41.95,7.22,47.21,29.07.58,2.93.98,6.24.98,8.97,0,26.34-26.14,41.56-50.73,41.56-21.07,0-46.63-12.49-49.17-36.87l-.2-3.71,19.9-.39.2,2.93v-.78c1.37,12.68,16.78,19.32,29.46,19.32,14.63,0,30.63-8.19,30.63-22.24,0-1.37-.2-2.93-.58-4.68-2.34-10.34-16.39-12.1-30.04-13.46-21.27-2.15-46.24-6.83-48.38-35.31v.19c-.78-9.17,1.56-18.34,7.41-25.95,9.17-11.9,25.56-18.14,41.36-18.14,21.07,0,42.92,10.93,46.43,35.9l-19.51.78Z"/><rect class="ak" x="507.41" y="221.51" width="20.14" height="136.46"/><g><path class="at" d="m534.05,431.29h-15.06c-1.62,3.84-3.72,8.88-5.04,12.36h-6.54l16.86-42.54h4.44l16.86,42.54h-6.48l-5.04-12.36Zm-12.78-5.7h10.44l-5.16-14.82-5.28,14.82Z"/><path class="ae" d="m557.31,437.59h19.74v6.06h-25.8v-41.94h6.06v35.88Z"/><path class="z" d="m585.43,443.83v-36.06h-12.72v-6.12h31.44v6.12h-12.66v36.06h-6.06Z"/><path class="aj" d="m621.94,407.6c0,3.15-2.61,6.2-6.41,6.2-3.37,0-6.09-3.04-6.09-6.2,0-3.81,2.72-6.31,6.09-6.31,3.81,0,6.41,2.5,6.41,6.31Zm0,29.68c0,3.04-2.61,6.2-6.41,6.2-3.37,0-6.09-3.15-6.09-6.2,0-3.81,2.72-6.31,6.09-6.31,3.81,0,6.41,2.5,6.41,6.31Z"/><path class="an" d="m659.5,401.72h6.48l-16.86,42.06h-4.44l-16.86-42.06h6.6l12.48,31.38,12.6-31.38Z"/><path class="y" d="m702.31,443.65h-6.06v-41.94h25.02v6.06h-18.96v11.82h16.8v6.12h-16.8v17.94Z"/><path class="ag" d="m735.91,422.35h7.08c5.1,0,7.62-3.66,7.62-7.32s-2.52-7.26-7.62-7.26h-9.3v35.88h-6v-42h15.3c9.12,0,13.68,6.72,13.68,13.38,0,5.94-3.66,11.58-10.86,12.84l13.26,15.78h-7.86l-15.3-18.42v-2.88Z"/><path class="aa" d="m789.55,431.29h-15.06c-1.62,3.84-3.72,8.88-5.04,12.36h-6.54l16.86-42.54h4.44l16.86,42.54h-6.48l-5.04-12.36Zm-12.78-5.7h10.44l-5.16-14.82-5.28,14.82Z"/><path class="af" d="m812.17,443.65h-6.06v-42h4.92l13.86,20.4,13.86-20.4h4.8v42h-6v-29.58l-10.98,16.32h-3.42l-10.98-16.32v29.58Z"/><path class="ac" d="m858.43,437.59h19.5v6.06h-25.62v-41.94h25.56v6.06h-19.44v11.82h19.02v6.12h-19.02v11.88Z"/><path class="ar" d="m909.35,423.67c-2.4,6.84-4.98,13.98-7.14,20.34h-4.5l-13.98-42.3h6.3l10.02,30.3,6.9-19.62h4.86l6.84,19.56c3.3-10.02,6.96-20.7,10.08-30.24h6.36l-13.98,42.3h-4.5l-7.26-20.34Z"/><path class="am" d="m945.05,407.48c3.84-3.9,9.24-6.36,15.12-6.36s11.28,2.46,15.18,6.36c3.78,3.9,6.24,9.24,6.24,15.18s-2.46,11.28-6.24,15.18c-3.9,3.96-9.24,6.36-15.18,6.36s-11.28-2.4-15.12-6.36c-3.78-3.9-6.24-9.24-6.24-15.18s2.46-11.28,6.24-15.18Zm25.98,4.32c-2.82-2.82-6.72-4.56-10.86-4.56s-7.98,1.74-10.74,4.56c-2.76,2.76-4.5,6.6-4.5,10.86s1.74,8.1,4.5,10.86c2.76,2.82,6.6,4.56,10.74,4.56s8.04-1.74,10.86-4.56c2.7-2.76,4.44-6.54,4.44-10.86s-1.74-8.1-4.44-10.86Z"/><path class="as" d="m996.85,422.35h7.08c5.1,0,7.62-3.66,7.62-7.32s-2.52-7.26-7.62-7.26h-9.3v35.88h-6v-42h15.3c9.12,0,13.68,6.72,13.68,13.38,0,5.94-3.66,11.58-10.86,12.84l13.26,15.78h-7.86l-15.3-18.42v-2.88Z"/><path class="ap" d="m1032.45,401.72v41.94h-6v-41.94h6Zm1.14,19.44l14.64-19.44h7.62l-16.02,20.82,17.7,21.12h-7.92l-16.02-19.44v-3.06Z"/></g><path class="ak" d="m672.39,326.48v-.34c-10.2,8.55-23.97,13.21-39.18,13.21s-29.35-5.66-39.44-14.63c-10.09-8.97-16.51-21.07-16.51-34.73s6.42-26.14,16.51-35.12c10.09-8.97,24.07-14.63,39.44-14.63,17.78,0,33.35,5.86,43.58,17.5h25.61c-12.64-23.01-38.12-37.01-69.19-37.01-21.78,0-41.5,8-55.49,20.29-13.76,12.49-22.93,29.66-22.93,48.97s9.17,36.09,22.93,48.58c13.99,12.49,33.7,20.29,55.49,20.29,28.76,0,52.76-12.49,66.47-32.38h-27.3Z"/></g></svg>